<?xml version="1.0" encoding="UTF-8"?>
<svg id="Layer_1" xmlns="http://www.w3.org/2000/svg" version="1.1" viewBox="0 0 498 121.55">
  <!-- Generator: Adobe Illustrator 29.4.0, SVG Export Plug-In . SVG Version: 2.1.0 Build 152)  -->
  <defs>
    <style>
      .st0 {
        fill: #4d5958;
        fill-rule: evenodd;
      }
    </style>
  </defs>
  <path class="st0" d="M52.81,26.78H4v67.98h11.78v-56.1h37.03c4.11,0,7.31,1.07,9.58,3.22,2.28,2.15,3.41,5.44,3.41,9.87s-1.09,7.81-3.27,10.15c-2.18,2.34-5.42,3.5-9.73,3.5h-28.33v10.47h25.43l17.2,18.89h16.83l-20.48-20.66c4.43-1.68,7.87-4.44,10.33-8.28,2.46-3.83,3.69-8.59,3.69-14.26,0-3.8-.56-7.23-1.68-10.29-1.12-3.05-2.74-5.66-4.86-7.81-2.12-2.15-4.71-3.8-7.76-4.96-3.05-1.15-6.51-1.73-10.38-1.73Z"/>
  <path class="st0" d="M106.43,29.17c-4.02,1.59-7.51,3.83-10.47,6.73-2.96,2.9-5.27,6.4-6.92,10.52-1.65,4.12-2.48,8.67-2.48,13.65s.82,9.51,2.48,13.75c1.65,4.24,3.96,7.9,6.92,10.99,2.96,3.08,6.45,5.52,10.47,7.29,4.02,1.78,8.4,2.66,13.14,2.66h16.55c4.86,0,9.32-.89,13.37-2.66,4.05-1.78,7.56-4.21,10.52-7.29,2.96-3.09,5.27-6.75,6.92-10.99,1.65-4.24,2.48-8.82,2.48-13.75s-.81-9.43-2.43-13.51c-1.62-4.08-3.9-7.59-6.83-10.52-2.93-2.93-6.44-5.21-10.52-6.83-4.08-1.62-8.59-2.43-13.51-2.43h-16.55c-4.74,0-9.12.79-13.14,2.38ZM119.57,38.66h16.55c3.11,0,5.98.55,8.6,1.64,2.62,1.09,4.88,2.6,6.78,4.53,1.9,1.93,3.38,4.26,4.44,6.97,1.06,2.71,1.59,5.66,1.59,8.84s-.53,6.14-1.59,8.88c-1.06,2.74-2.54,5.1-4.44,7.06-1.9,1.96-4.16,3.51-6.78,4.63-2.62,1.12-5.49,1.68-8.6,1.68h-16.55c-3.05,0-5.87-.56-8.46-1.68-2.58-1.12-4.81-2.66-6.68-4.63-1.87-1.96-3.33-4.32-4.39-7.06-1.06-2.74-1.59-5.7-1.59-8.88s.53-6.2,1.59-8.88c1.06-2.68,2.52-4.99,4.39-6.92,1.87-1.93,4.1-3.44,6.68-4.53,2.59-1.09,5.41-1.64,8.46-1.64Z"/>
  <path class="st0" d="M341.45,29.17c-4.02,1.59-7.51,3.83-10.47,6.73-2.96,2.9-5.27,6.4-6.92,10.52-1.65,4.12-2.48,8.67-2.48,13.65s.83,9.51,2.48,13.75c1.65,4.24,3.96,7.9,6.92,10.99,2.96,3.08,6.45,5.52,10.47,7.29,4.02,1.78,8.4,2.66,13.14,2.66h16.55c4.86,0,9.32-.89,13.37-2.66,4.05-1.78,7.56-4.21,10.52-7.29,2.96-3.09,5.27-6.75,6.92-10.99,1.65-4.24,2.48-8.82,2.48-13.75s-.81-9.43-2.43-13.51c-1.62-4.08-3.89-7.59-6.83-10.52-2.93-2.93-6.44-5.21-10.52-6.83-4.08-1.62-8.59-2.43-13.51-2.43h-16.55c-4.74,0-9.11.79-13.13,2.38h0ZM354.58,38.66h16.55c3.12,0,5.98.55,8.6,1.64,2.62,1.09,4.88,2.6,6.78,4.53,1.9,1.93,3.38,4.26,4.44,6.97,1.06,2.71,1.59,5.66,1.59,8.84s-.53,6.14-1.59,8.88c-1.06,2.74-2.54,5.1-4.44,7.06-1.9,1.96-4.16,3.51-6.78,4.63-2.62,1.12-5.49,1.68-8.6,1.68h-16.55c-3.05,0-5.87-.56-8.46-1.68-2.58-1.12-4.81-2.66-6.69-4.63-1.87-1.96-3.33-4.32-4.39-7.06-1.06-2.74-1.59-5.7-1.59-8.88s.53-6.2,1.59-8.88c1.06-2.68,2.52-4.99,4.39-6.92,1.87-1.93,4.1-3.44,6.69-4.53,2.59-1.09,5.41-1.64,8.46-1.64Z"/>
  <path class="st0" d="M414.05,26.78v67.98h11.78v-56.1h37.03c4.12,0,7.31,1.07,9.58,3.22,2.28,2.15,3.41,5.44,3.41,9.87s-1.09,7.81-3.27,10.15c-2.18,2.34-5.42,3.5-9.73,3.5h-28.33v10.47h25.43l17.2,18.89h16.83l-20.48-20.66c4.43-1.68,7.87-4.44,10.33-8.28,2.46-3.83,3.69-8.59,3.69-14.26,0-3.8-.56-7.23-1.68-10.29-1.12-3.05-2.74-5.66-4.86-7.81-2.12-2.15-4.71-3.8-7.76-4.96-3.06-1.15-6.51-1.73-10.38-1.73h-48.81Z"/>
  <path class="st0" d="M184.41,26.79l36,27.68c1.25.93,2.06,1.81,2.43,2.61.37.81.56,1.75.56,2.81,0,.93-.14,1.79-.42,2.57-.28.78-.95,1.58-2.01,2.38l-38.06,29.92h-18.14l45.91-34.78-44.51-33.19h18.23ZM251.51,113.92v3.63h11.88V4h-11.88v109.92ZM227.76,113.92v3.63h11.88V4h-11.88v109.92ZM306.74,26.79l-36,27.68c-1.24.93-2.06,1.81-2.43,2.61-.37.81-.56,1.75-.56,2.81,0,.93.14,1.79.42,2.57.28.78.95,1.58,2.01,2.38l38.06,29.92h18.14l-45.91-34.78,44.51-33.19h-18.23Z"/>
</svg>